<?xml version="1.0" encoding="UTF-8"?>
<svg id="Layer_1" data-name="Layer 1" xmlns="http://www.w3.org/2000/svg" xmlns:xlink="http://www.w3.org/1999/xlink" viewBox="0 0 798.23 328.45">
  <defs>
    <style>
      .cls-1 {
        fill: url(#linear-gradient);
      }

      .cls-2 {
        fill: #fff;
      }

      .cls-3 {
        fill: none;
        stroke: #c94f9d;
        stroke-miterlimit: 10;
        stroke-width: 17.01px;
      }

      .cls-4 {
        fill: url(#linear-gradient-3);
      }

      .cls-5 {
        fill: url(#linear-gradient-4);
      }

      .cls-6 {
        fill: url(#linear-gradient-2);
      }
    </style>
    <linearGradient id="linear-gradient" x1="449.9" y1="310.39" x2="449.9" y2="4.25" gradientUnits="userSpaceOnUse">
      <stop offset="0" stop-color="#fff"/>
      <stop offset=".27" stop-color="#be489a"/>
      <stop offset=".53" stop-color="#be489a"/>
      <stop offset=".54" stop-color="#f8fcff"/>
      <stop offset=".8" stop-color="#39c6f4"/>
      <stop offset=".8" stop-color="#39c6f4"/>
      <stop offset="1" stop-color="#4961ac"/>
    </linearGradient>
    <linearGradient id="linear-gradient-2" x1="133.55" x2="133.55" xlink:href="#linear-gradient"/>
    <linearGradient id="linear-gradient-3" x1="292.07" x2="292.07" xlink:href="#linear-gradient"/>
    <linearGradient id="linear-gradient-4" x1="664.12" x2="664.12" xlink:href="#linear-gradient"/>
  </defs>
  <path class="cls-3" d="m458.63,97.57l-50.6,222.38h-74.83l57.83-261.5,45.92-36.14h113.95l28.91,36.14-60.38,261.5h-74.83l50.17-222.38h-36.14Z"/>
  <path class="cls-3" d="m108.7,244.69l-16.58,75.26H16.85L74.68,58.88l45.92-36.57h113.95l28.91,36.57-33.59,149.67-45.92,36.14h-75.26Zm53.15-72.28l17.01-74.83h-36.14l-17.01,74.83h36.14Z"/>
  <path class="cls-3" d="m301.73,319.95h-74.83L294.5,22.31h75.26l-68.03,297.64Z"/>
  <path class="cls-3" d="m602.34,58.03l45.92-35.72h111.4l29.34,35.72-17.43,75.26h-74.41l9.35-35.72h-38.69l-31.46,147.54h36.57l7.23-36.14h-17.43l8.08-36.99h93.97l-23.81,111.83-45.92,36.14h-114.38l-28.91-36.14,50.6-225.78Z"/>
  <g>
    <polygon class="cls-1" points="433.02 310.39 483.19 88.02 455.76 88.02 405.16 310.39 321.64 310.39 380.94 42.24 429.21 4.25 546.68 4.25 578.16 43.6 516.55 310.39 433.02 310.39"/>
    <path class="cls-2" d="m544.64,8.5l28.91,36.14-60.38,261.5h-74.83l50.17-222.38h-36.14l-50.6,222.38h-74.83l57.83-261.5,45.92-36.14h113.95m4.09-8.5h-120.98l-2.31,1.82-45.92,36.14-2.39,1.88-.66,2.97-57.83,261.5-2.29,10.34h92.21l1.51-6.62,49.09-215.76h18.72l-47.83,212-2.34,10.38h92.24l1.52-6.59,60.38-261.5.93-4.01-2.57-3.21-28.91-36.14-2.55-3.19h0Z"/>
  </g>
  <g>
    <path class="cls-6" d="m5.3,310.39L64.6,42.68,112.86,4.25h117.5l31.45,39.77-34.37,153.12-48.27,37.99h-73.32l-16.58,75.26H5.3Zm146.9-156.05l15.08-66.33h-27.42l-15.08,66.33h27.42Z"/>
    <path class="cls-2" d="m228.29,8.5l28.91,36.57-33.59,149.67-45.92,36.14h-75.26l-16.58,75.26H10.59L68.42,45.07,114.34,8.5h113.95m-55.7,75.26h-36.14l-17.01,74.83h36.14l17.01-74.83M232.41,0h-121.04l-2.33,1.85-45.92,36.57-2.35,1.87-.65,2.94L2.29,304.3l-2.29,10.34h92.69l1.47-6.67,15.11-68.59h71.37l2.31-1.82,45.92-36.14,2.38-1.87.66-2.95,33.59-149.67.89-3.96-2.51-3.18L234.97,3.23l-2.55-3.23h0Zm-89.17,92.27h18.7l-13.14,57.83h-18.7l13.14-57.83h0Z"/>
  </g>
  <g>
    <polygon class="cls-4" points="215.31 310.39 284.85 4.25 368.84 4.25 298.86 310.39 215.31 310.39"/>
    <path class="cls-2" d="m363.5,8.5l-68.03,297.64h-74.83L288.24,8.5h75.26m10.67-8.5h-92.72l-1.5,6.62-67.61,297.64-2.36,10.39h92.27l1.51-6.61L371.79,10.4l2.38-10.4h0Z"/>
  </g>
  <g>
    <polygon class="cls-5" points="572.35 310.39 540.89 271.06 592.27 41.8 640.54 4.25 755.41 4.25 787.36 43.14 768.69 123.73 685.39 123.73 694.75 88.02 665 88.02 635.35 227.06 663.18 227.06 668.71 199.42 651.18 199.42 661.11 153.92 763.76 153.92 738.53 272.39 690.25 310.39 572.35 310.39"/>
    <path class="cls-2" d="m753.4,8.5l29.34,35.72-17.43,75.26h-74.41l9.35-35.72h-38.69l-31.46,147.54h36.57l7.23-36.14h-17.43l8.08-36.99h93.97l-23.81,111.83-45.92,36.14h-114.38l-28.91-36.14,50.6-225.78,45.92-35.72h111.4m4.02-8.5h-118.34l-2.3,1.79-45.92,35.72-2.41,1.87-.67,2.98-50.6,225.78-.89,3.98,2.55,3.19,28.91,36.14,2.55,3.19h121.41l2.31-1.82,45.92-36.14,2.42-1.9.64-3.01,23.81-111.83,2.19-10.27h-111.32l-1.46,6.69-8.08,36.99-2.25,10.32h17.62l-3.83,19.13h-19.09l27.84-130.54h20.79l-6.56,25.06-2.79,10.66h92.19l1.53-6.58,17.43-75.26.95-4.08-2.66-3.24-29.34-35.72-2.55-3.11h0Z"/>
  </g>
</svg>